<svg xmlns="http://www.w3.org/2000/svg" xmlns:xlink="http://www.w3.org/1999/xlink" width="406" zoomAndPan="magnify" viewBox="0 0 304.5 103.5" height="138" preserveAspectRatio="xMidYMid meet" version="1.0"><defs><g/><clipPath id="ee68076274"><path d="M 132 8 L 156 8 L 156 39.9375 L 132 39.9375 Z M 132 8 " clip-rule="nonzero"/></clipPath><clipPath id="22323afbaa"><rect x="0" width="187" y="0" height="40"/></clipPath><clipPath id="07a45565fa"><path d="M 0.484375 25 L 23 25 L 23 71 L 0.484375 71 Z M 0.484375 25 " clip-rule="nonzero"/></clipPath><clipPath id="0d5dc59812"><path d="M 23 20 L 46 20 L 46 77.9375 L 23 77.9375 Z M 23 20 " clip-rule="nonzero"/></clipPath><clipPath id="625cd43bc8"><path d="M 46 7.773438 L 68 7.773438 L 68 71 L 46 71 Z M 46 7.773438 " clip-rule="nonzero"/></clipPath></defs><g transform="matrix(1, 0, 0, 1, 80, 31)"><g clip-path="url(#22323afbaa)"><g fill="#231f20" fill-opacity="1"><g transform="translate(0.967348, 31.217433)"><g><path d="M 14.875 0 L 3.5 0 L 3.5 -29.359375 L 14.8125 -29.359375 C 17.15625 -29.359375 19.28125 -29.007812 21.1875 -28.3125 C 23.101562 -27.613281 24.75 -26.613281 26.125 -25.3125 C 27.5 -24.019531 28.554688 -22.476562 29.296875 -20.6875 C 30.035156 -18.894531 30.40625 -16.898438 30.40625 -14.703125 C 30.40625 -12.492188 30.035156 -10.488281 29.296875 -8.6875 C 28.554688 -6.882812 27.503906 -5.332031 26.140625 -4.03125 C 24.773438 -2.738281 23.140625 -1.742188 21.234375 -1.046875 C 19.328125 -0.347656 17.207031 0 14.875 0 Z M 8.78125 -24.578125 L 8.78125 -4.796875 L 14.703125 -4.796875 C 16.847656 -4.796875 18.6875 -5.191406 20.21875 -5.984375 C 21.757812 -6.785156 22.941406 -7.921875 23.765625 -9.390625 C 24.585938 -10.859375 25 -12.597656 25 -14.609375 C 25 -16.609375 24.59375 -18.359375 23.78125 -19.859375 C 22.976562 -21.359375 21.804688 -22.519531 20.265625 -23.34375 C 18.722656 -24.164062 16.851562 -24.578125 14.65625 -24.578125 Z M 8.78125 -24.578125 "/></g></g></g><g fill="#231f20" fill-opacity="1"><g transform="translate(32.824893, 31.217433)"><g><path d="M 24.171875 -11.484375 C 24.171875 -11.210938 24.160156 -10.953125 24.140625 -10.703125 C 24.128906 -10.460938 24.101562 -10.132812 24.0625 -9.71875 L 6.734375 -9.71875 C 6.921875 -8.507812 7.304688 -7.476562 7.890625 -6.625 C 8.472656 -5.78125 9.195312 -5.128906 10.0625 -4.671875 C 10.925781 -4.222656 11.867188 -4 12.890625 -4 C 14.210938 -4 15.28125 -4.257812 16.09375 -4.78125 C 16.914062 -5.300781 17.515625 -6.03125 17.890625 -6.96875 L 23.59375 -6.96875 C 23.320312 -5.976562 22.867188 -5.019531 22.234375 -4.09375 C 21.609375 -3.175781 20.84375 -2.359375 19.9375 -1.640625 C 19.03125 -0.929688 17.988281 -0.367188 16.8125 0.046875 C 15.644531 0.460938 14.375 0.671875 13 0.671875 C 11.320312 0.671875 9.78125 0.363281 8.375 -0.25 C 6.976562 -0.863281 5.765625 -1.707031 4.734375 -2.78125 C 3.703125 -3.863281 2.898438 -5.113281 2.328125 -6.53125 C 1.765625 -7.957031 1.484375 -9.476562 1.484375 -11.09375 C 1.484375 -12.71875 1.765625 -14.238281 2.328125 -15.65625 C 2.898438 -17.070312 3.703125 -18.316406 4.734375 -19.390625 C 5.765625 -20.472656 6.976562 -21.320312 8.375 -21.9375 C 9.78125 -22.550781 11.320312 -22.859375 13 -22.859375 C 14.664062 -22.859375 16.1875 -22.554688 17.5625 -21.953125 C 18.9375 -21.347656 20.113281 -20.515625 21.09375 -19.453125 C 22.082031 -18.398438 22.84375 -17.1875 23.375 -15.8125 C 23.90625 -14.445312 24.171875 -13.003906 24.171875 -11.484375 Z M 6.953125 -13.75 L 18.84375 -13.75 C 18.769531 -14.582031 18.457031 -15.335938 17.90625 -16.015625 C 17.363281 -16.703125 16.660156 -17.253906 15.796875 -17.671875 C 14.929688 -18.085938 13.988281 -18.296875 12.96875 -18.296875 C 12.09375 -18.296875 11.25 -18.132812 10.4375 -17.8125 C 9.632812 -17.488281 8.925781 -16.992188 8.3125 -16.328125 C 7.707031 -15.660156 7.253906 -14.800781 6.953125 -13.75 Z M 6.953125 -13.75 "/></g></g></g><g fill="#231f20" fill-opacity="1"><g transform="translate(58.185744, 31.217433)"><g><path d="M 13.921875 0 L 9.0625 0 L 0.21875 -22.1875 L 5.765625 -22.1875 L 10.921875 -8.78125 L 11.5 -6.453125 L 12.0625 -8.765625 L 17.21875 -22.1875 L 22.8125 -22.1875 Z M 13.921875 0 "/></g></g></g><g fill="#231f20" fill-opacity="1"><g transform="translate(81.193972, 31.217433)"><g><path d="M 4.796875 7.578125 L 1.0625 7.578125 L 1.0625 3.265625 L 4.75 3.265625 C 5.519531 3.265625 6.15625 3.132812 6.65625 2.875 C 7.15625 2.625 7.578125 2.238281 7.921875 1.71875 C 8.265625 1.207031 8.585938 0.539062 8.890625 -0.28125 L 9.15625 -1.03125 L 0.640625 -22.1875 L 6.15625 -22.1875 L 11.375 -8.765625 L 11.9375 -6.46875 L 12.515625 -8.734375 L 17.65625 -22.171875 L 23.21875 -22.1875 L 14.5625 -0.5 C 13.914062 1.15625 13.269531 2.507812 12.625 3.5625 C 11.976562 4.625 11.285156 5.445312 10.546875 6.03125 C 9.804688 6.613281 8.96875 7.015625 8.03125 7.234375 C 7.101562 7.460938 6.023438 7.578125 4.796875 7.578125 Z M 4.796875 7.578125 "/></g></g></g><g fill="#231f20" fill-opacity="1"><g transform="translate(104.61229, 31.217433)"><g><path d="M 13.03125 0.671875 C 11.550781 0.671875 10.175781 0.460938 8.90625 0.046875 C 7.644531 -0.359375 6.539062 -1 5.59375 -1.875 C 4.644531 -2.75 3.90625 -3.882812 3.375 -5.28125 C 2.851562 -6.675781 2.59375 -8.363281 2.59375 -10.34375 L 2.59375 -22.1875 L 7.765625 -22.1875 L 7.765625 -10.484375 C 7.765625 -8.441406 8.203125 -6.878906 9.078125 -5.796875 C 9.960938 -4.722656 11.273438 -4.1875 13.015625 -4.1875 C 14.765625 -4.1875 16.070312 -4.726562 16.9375 -5.8125 C 17.800781 -6.90625 18.234375 -8.460938 18.234375 -10.484375 L 18.234375 -22.1875 L 23.4375 -22.1875 L 23.4375 -10.34375 C 23.4375 -8.363281 23.171875 -6.675781 22.640625 -5.28125 C 22.117188 -3.882812 21.382812 -2.75 20.4375 -1.875 C 19.488281 -1 18.382812 -0.359375 17.125 0.046875 C 15.863281 0.460938 14.5 0.671875 13.03125 0.671875 Z M 13.03125 0.671875 "/></g></g></g><g clip-path="url(#ee68076274)"><g fill="#231f20" fill-opacity="1"><g transform="translate(130.642236, 31.217433)"><g><path d="M 13.234375 8.421875 C 11.328125 8.421875 9.695312 8.179688 8.34375 7.703125 C 7 7.234375 5.894531 6.59375 5.03125 5.78125 C 4.164062 4.976562 3.519531 4.070312 3.09375 3.0625 C 2.664062 2.050781 2.429688 1.023438 2.390625 -0.015625 L 7.3125 -0.015625 C 7.46875 0.753906 7.753906 1.441406 8.171875 2.046875 C 8.597656 2.648438 9.21875 3.128906 10.03125 3.484375 C 10.84375 3.835938 11.898438 4.015625 13.203125 4.015625 C 14.410156 4.015625 15.4375 3.84375 16.28125 3.5 C 17.132812 3.15625 17.828125 2.679688 18.359375 2.078125 C 18.898438 1.472656 19.289062 0.78125 19.53125 0 C 19.78125 -0.789062 19.90625 -1.617188 19.90625 -2.484375 L 19.90625 -4.75 C 19.15625 -3.289062 18.097656 -2.222656 16.734375 -1.546875 C 15.378906 -0.878906 13.875 -0.546875 12.21875 -0.546875 C 10.644531 -0.546875 9.195312 -0.832031 7.875 -1.40625 C 6.5625 -1.976562 5.429688 -2.765625 4.484375 -3.765625 C 3.535156 -4.773438 2.796875 -5.945312 2.265625 -7.28125 C 1.742188 -8.613281 1.484375 -10.035156 1.484375 -11.546875 C 1.484375 -13.054688 1.742188 -14.488281 2.265625 -15.84375 C 2.785156 -17.195312 3.515625 -18.398438 4.453125 -19.453125 C 5.398438 -20.515625 6.515625 -21.347656 7.796875 -21.953125 C 9.085938 -22.554688 10.503906 -22.859375 12.046875 -22.859375 C 13.367188 -22.859375 14.550781 -22.644531 15.59375 -22.21875 C 16.632812 -21.789062 17.519531 -21.238281 18.25 -20.5625 C 18.976562 -19.894531 19.535156 -19.175781 19.921875 -18.40625 L 19.921875 -22.1875 L 24.890625 -22.1875 L 24.890625 -2.546875 C 24.890625 -0.992188 24.632812 0.445312 24.125 1.78125 C 23.625 3.113281 22.875 4.273438 21.875 5.265625 C 20.882812 6.253906 19.664062 7.023438 18.21875 7.578125 C 16.78125 8.140625 15.117188 8.421875 13.234375 8.421875 Z M 13.1875 -5.078125 C 14.09375 -5.078125 14.941406 -5.242188 15.734375 -5.578125 C 16.523438 -5.921875 17.21875 -6.394531 17.8125 -7 C 18.414062 -7.601562 18.878906 -8.296875 19.203125 -9.078125 C 19.535156 -9.859375 19.703125 -10.6875 19.703125 -11.5625 C 19.703125 -12.425781 19.535156 -13.242188 19.203125 -14.015625 C 18.878906 -14.796875 18.421875 -15.484375 17.828125 -16.078125 C 17.234375 -16.679688 16.539062 -17.15625 15.75 -17.5 C 14.957031 -17.84375 14.101562 -18.015625 13.1875 -18.015625 C 11.96875 -18.015625 10.863281 -17.738281 9.875 -17.1875 C 8.882812 -16.644531 8.101562 -15.890625 7.53125 -14.921875 C 6.957031 -13.960938 6.671875 -12.84375 6.671875 -11.5625 C 6.671875 -10.3125 6.957031 -9.195312 7.53125 -8.21875 C 8.101562 -7.238281 8.882812 -6.46875 9.875 -5.90625 C 10.863281 -5.351562 11.96875 -5.078125 13.1875 -5.078125 Z M 13.1875 -5.078125 "/></g></g></g></g><g fill="#231f20" fill-opacity="1"><g transform="translate(158.593132, 31.217433)"><g><path d="M 11.9375 0.671875 C 10.4375 0.671875 9.050781 0.367188 7.78125 -0.234375 C 6.507812 -0.835938 5.398438 -1.675781 4.453125 -2.75 C 3.515625 -3.832031 2.785156 -5.085938 2.265625 -6.515625 C 1.742188 -7.941406 1.484375 -9.46875 1.484375 -11.09375 C 1.484375 -12.71875 1.742188 -14.238281 2.265625 -15.65625 C 2.796875 -17.070312 3.53125 -18.316406 4.46875 -19.390625 C 5.414062 -20.472656 6.519531 -21.320312 7.78125 -21.9375 C 9.050781 -22.550781 10.429688 -22.859375 11.921875 -22.859375 C 13.734375 -22.859375 15.34375 -22.460938 16.75 -21.671875 C 18.15625 -20.890625 19.210938 -19.8125 19.921875 -18.4375 L 19.921875 -22.1875 L 24.890625 -22.1875 L 24.890625 0 L 19.921875 0 L 19.921875 -3.734375 C 19.203125 -2.347656 18.140625 -1.265625 16.734375 -0.484375 C 15.335938 0.285156 13.738281 0.671875 11.9375 0.671875 Z M 13.1875 -4.171875 C 14.09375 -4.171875 14.941406 -4.34375 15.734375 -4.6875 C 16.523438 -5.039062 17.21875 -5.53125 17.8125 -6.15625 C 18.414062 -6.78125 18.878906 -7.515625 19.203125 -8.359375 C 19.535156 -9.203125 19.703125 -10.113281 19.703125 -11.09375 C 19.703125 -12.0625 19.53125 -12.960938 19.1875 -13.796875 C 18.851562 -14.640625 18.390625 -15.378906 17.796875 -16.015625 C 17.210938 -16.648438 16.523438 -17.140625 15.734375 -17.484375 C 14.941406 -17.835938 14.09375 -18.015625 13.1875 -18.015625 C 11.988281 -18.015625 10.894531 -17.726562 9.90625 -17.15625 C 8.925781 -16.582031 8.140625 -15.773438 7.546875 -14.734375 C 6.960938 -13.703125 6.671875 -12.488281 6.671875 -11.09375 C 6.671875 -9.65625 6.96875 -8.414062 7.5625 -7.375 C 8.15625 -6.34375 8.945312 -5.550781 9.9375 -5 C 10.9375 -4.445312 12.019531 -4.171875 13.1875 -4.171875 Z M 13.1875 -4.171875 "/></g></g></g></g></g><g clip-path="url(#07a45565fa)"><path fill="#00d7ff" d="M 18.4375 35.710938 C 18.019531 35.363281 4.945312 26.75 3.65625 26.066406 C 2.039062 25.207031 0.660156 26.132812 0.550781 28.019531 C 0.523438 28.457031 0.664062 49.496094 0.671875 50.914062 C 0.496094 53.6875 1.328125 56.089844 3.285156 58.085938 C 4.234375 59.058594 21.691406 70.042969 21.710938 70.007812 C 21.996094 69.746094 22.105469 46.628906 21.910156 45.328125 C 22.410156 41.523438 21.464844 38.234375 18.4375 35.710938 Z M 18.4375 35.710938 " fill-opacity="1" fill-rule="nonzero"/></g><g clip-path="url(#0d5dc59812)"><path fill="#009cdf" d="M 44.886719 69.070312 C 44.910156 65.460938 44.964844 37.824219 44.949219 37.546875 C 44.824219 34.414062 43.554688 31.820312 40.957031 30.089844 C 36.488281 27.109375 26.644531 20.984375 26.316406 20.855469 C 25.9375 20.683594 25.578125 20.613281 25.246094 20.628906 C 24.941406 20.632812 24.675781 20.710938 24.449219 20.859375 C 23.855469 21.207031 23.457031 21.921875 23.402344 22.898438 C 23.378906 23.265625 23.453125 68.605469 23.4375 70.324219 C 23.429688 71.015625 23.574219 71.425781 24.265625 71.832031 C 26.925781 73.394531 29.535156 75.042969 32.105469 76.746094 C 33.613281 77.746094 34.984375 77.71875 36.46875 76.742188 C 38.6875 75.28125 40.890625 73.785156 43.214844 72.511719 C 44.714844 71.691406 45.320312 70.703125 44.886719 69.070312 Z M 44.886719 69.070312 " fill-opacity="1" fill-rule="nonzero"/></g><g clip-path="url(#625cd43bc8)"><path fill="#5800ff" d="M 67.933594 26.378906 C 67.96875 25.796875 67.972656 25.230469 67.933594 24.675781 C 67.933594 24.636719 67.933594 24.597656 67.933594 24.558594 C 67.730469 21.097656 66.082031 18.472656 63.226562 16.585938 C 60.066406 14.5 56.933594 12.375 53.695312 10.421875 C 52.371094 9.625 51.09375 8.707031 49.613281 8.152344 C 49.605469 8.148438 49.59375 8.140625 49.585938 8.136719 C 49.132812 7.898438 48.703125 7.800781 48.3125 7.820312 C 47.679688 7.78125 47.238281 8.007812 46.972656 8.558594 C 46.695312 8.945312 46.515625 9.460938 46.476562 10.089844 C 46.46875 10.257812 46.71875 66.167969 46.660156 69.902344 C 46.964844 70.367188 47.28125 70.0625 47.554688 69.886719 C 51.769531 67.171875 55.976562 64.449219 60.1875 61.730469 C 64.238281 59.726562 67.5 57.035156 67.902344 52.148438 C 68.070312 50.167969 67.933594 28.40625 67.933594 26.378906 Z M 67.933594 26.378906 " fill-opacity="1" fill-rule="nonzero"/></g></svg>